<svg width="20" height="20" viewBox="0 0 20 20" fill="none" xmlns="http://www.w3.org/2000/svg">
<path d="M15.1288 10.6359C15.1387 9.8693 15.3429 9.11766 15.7224 8.4509C16.1019 7.78415 16.6443 7.22394 17.2993 6.82242C16.8832 6.22987 16.3343 5.74223 15.6962 5.39822C15.0581 5.05421 14.3483 4.86331 13.6233 4.84069C12.0767 4.6788 10.5773 5.76358 9.78911 5.76358C8.98572 5.76358 7.77226 4.85677 6.46556 4.88357C5.62035 4.9108 4.79663 5.1559 4.07465 5.59497C3.35267 6.03405 2.75706 6.65213 2.34585 7.389C0.564612 10.4644 1.89326 14.9841 3.59956 17.4701C4.45327 18.6873 5.451 20.0471 6.75653 19.9988C8.03406 19.946 8.51119 19.1865 10.0533 19.1865C11.581 19.1865 12.0287 19.9988 13.3607 19.9682C14.7316 19.946 15.5953 18.7455 16.419 17.5167C17.0324 16.6493 17.5044 15.6907 17.8175 14.6764C17.0211 14.3405 16.3415 13.7782 15.8633 13.0597C15.3852 12.3412 15.1297 11.4982 15.1288 10.6359Z" fill="black"/>
<path d="M12.6113 3.20599C13.3587 2.31122 13.727 1.16115 13.6378 0C12.4959 0.119601 11.441 0.663839 10.6835 1.52428C10.3131 1.94462 10.0294 2.43364 9.84869 2.96338C9.66794 3.49312 9.59367 4.05319 9.63011 4.61157C10.2013 4.61743 10.7663 4.49398 11.2827 4.25051C11.7991 4.00704 12.2534 3.6499 12.6113 3.20599Z" fill="black"/>
</svg>
