<svg width="144" height="33" viewBox="0 0 144 33" fill="none" xmlns="http://www.w3.org/2000/svg">
<path d="M22.0705 17.224C22.0866 15.9825 22.4173 14.7653 23.0318 13.6856C23.6464 12.6058 24.5248 11.6986 25.5854 11.0484C24.9116 10.0888 24.0228 9.29912 22.9894 8.74203C21.956 8.18495 20.8066 7.87581 19.6325 7.83918C17.1279 7.577 14.6998 9.33371 13.4234 9.33371C12.1224 9.33371 10.1573 7.86521 8.04124 7.90862C6.6725 7.95271 5.33857 8.34962 4.16939 9.06066C3.00022 9.7717 2.03569 10.7726 1.36977 11.9659C-1.51477 16.9462 0.636841 24.2655 3.40004 28.2912C4.78253 30.2625 6.39826 32.4644 8.51243 32.3863C10.5813 32.3007 11.3539 31.0708 13.8512 31.0708C16.3253 31.0708 17.0502 32.3863 19.2073 32.3367C21.4272 32.3007 22.8259 30.3567 24.1599 28.3667C25.1532 26.9621 25.9176 25.4098 26.4247 23.7671C25.1349 23.2231 24.0343 22.3126 23.26 21.149C22.4857 19.9855 22.072 18.6204 22.0705 17.224Z" fill="black"/>
<path d="M17.9946 5.19178C19.2051 3.7428 19.8014 1.88036 19.657 0C17.8078 0.193682 16.0996 1.07502 14.8728 2.46842C14.273 3.14913 13.8136 3.94105 13.5209 4.7989C13.2282 5.65676 13.1079 6.56374 13.1669 7.46798C14.0919 7.47748 15.0069 7.27756 15.8432 6.88328C16.6794 6.48901 17.415 5.91065 17.9946 5.19178Z" fill="black"/>
<path d="M46.8967 20.1125H40.1076L38.4772 24.9132H35.6016L42.0321 7.15186H45.0198L51.4503 24.9132H48.5257L46.8967 20.1125ZM40.8107 17.8972H46.1922L43.5393 10.106H43.465L40.8107 17.8972Z" fill="black"/>
<path d="M65.3338 18.4395C65.3338 22.4635 63.1739 25.0489 59.9145 25.0489C59.0889 25.092 58.2677 24.9023 57.5451 24.5017C56.8226 24.101 56.2277 23.5055 55.8287 22.7834H55.7671V29.1973H53.1016V11.9641H55.6816V14.1179H55.7306C56.148 13.3992 56.7529 12.8068 57.4809 12.4037C58.209 12.0005 59.0331 11.8018 59.8655 11.8286C63.1613 11.8286 65.3338 14.4265 65.3338 18.4395ZM62.594 18.4395C62.594 15.8177 61.2354 14.0941 59.1624 14.0941C57.1258 14.0941 55.7559 15.854 55.7559 18.4395C55.7559 21.0486 57.1258 22.796 59.1624 22.796C61.2354 22.796 62.594 21.0849 62.594 18.4395H62.594Z" fill="black"/>
<path d="M79.6236 18.4395C79.6236 22.4635 77.463 25.0489 74.2036 25.0489C73.3779 25.092 72.5568 24.9023 71.8342 24.5017C71.1116 24.101 70.5168 23.5055 70.1178 22.7834H70.0561V29.1973H67.3906V11.9641H69.9707V14.1179H70.0197C70.437 13.3992 71.0419 12.8068 71.77 12.4037C72.4981 12.0005 73.3222 11.8018 74.1545 11.8286C77.4504 11.8286 79.6236 14.4265 79.6236 18.4395ZM76.8831 18.4395C76.8831 15.8177 75.5245 14.0941 73.4514 14.0941C71.4148 14.0941 70.045 15.854 70.045 18.4395C70.045 21.0486 71.4148 22.796 73.4514 22.796C75.5245 22.796 76.8831 21.0849 76.8831 18.4395Z" fill="black"/>
<path d="M89.0723 19.9642C89.2699 21.7255 90.9857 22.882 93.3304 22.882C95.5771 22.882 97.1935 21.7254 97.1935 20.1373C97.1935 18.7587 96.2186 17.9332 93.9103 17.3675L91.602 16.813C88.3314 16.0252 86.8131 14.5 86.8131 12.0249C86.8131 8.96039 89.4912 6.85547 93.2926 6.85547C97.0577 6.85547 99.6377 8.96039 99.7246 12.0249H97.0338C96.8728 10.2524 95.4034 9.18249 93.2562 9.18249C91.1089 9.18249 89.6396 10.265 89.6396 11.8405C89.6396 13.0962 90.5781 13.8351 92.8738 14.4007L94.8361 14.8812C98.4905 15.743 100.007 17.2069 100.007 19.8048C100.007 23.1277 97.3546 25.2089 93.1329 25.2089C89.1829 25.2089 86.516 23.1766 86.3438 19.964L89.0723 19.9642Z" fill="black"/>
<path d="M105.769 8.8999V11.9644H108.239V14.0693H105.769V21.2082C105.769 22.3172 106.264 22.834 107.349 22.834C107.642 22.8289 107.935 22.8084 108.226 22.7725V24.8649C107.738 24.9558 107.242 24.997 106.746 24.9878C104.117 24.9878 103.091 24.0031 103.091 21.4917V14.0693H101.203V11.9644H103.091V8.8999H105.769Z" fill="black"/>
<path d="M109.664 18.4383C109.664 14.364 112.07 11.8037 115.823 11.8037C119.588 11.8037 121.983 14.3639 121.983 18.4383C121.983 22.5239 119.601 25.073 115.823 25.073C112.047 25.073 109.664 22.5239 109.664 18.4383ZM119.267 18.4383C119.267 15.6434 117.983 13.9938 115.823 13.9938C113.663 13.9938 112.379 15.656 112.379 18.4383C112.379 21.2444 113.663 22.8814 115.823 22.8814C117.983 22.8814 119.267 21.2444 119.267 18.4383H119.267Z" fill="black"/>
<path d="M124.176 11.9639H126.718V14.168H126.78C126.952 13.4796 127.356 12.8713 127.925 12.4452C128.494 12.0192 129.192 11.8014 129.903 11.8284C130.21 11.8274 130.517 11.8606 130.816 11.9276V14.4138C130.429 14.2957 130.024 14.2414 129.619 14.2532C129.232 14.2376 128.846 14.3056 128.487 14.4528C128.129 14.5999 127.807 14.8227 127.543 15.1057C127.279 15.3888 127.08 15.7254 126.959 16.0925C126.837 16.4596 126.797 16.8485 126.841 17.2325V24.9133H124.176L124.176 11.9639Z" fill="black"/>
<path d="M143.112 21.109C142.754 23.4597 140.458 25.073 137.521 25.073C133.743 25.073 131.398 22.549 131.398 18.4998C131.398 14.438 133.756 11.8037 137.409 11.8037C141.002 11.8037 143.261 14.2648 143.261 18.1911V19.1018H134.089V19.2624C134.047 19.739 134.107 20.2191 134.265 20.6708C134.423 21.1226 134.675 21.5356 135.006 21.8825C135.336 22.2295 135.737 22.5023 136.181 22.6829C136.625 22.8636 137.103 22.9479 137.582 22.9303C138.212 22.9892 138.844 22.8437 139.385 22.5155C139.925 22.1874 140.345 21.694 140.581 21.1089L143.112 21.109ZM134.102 17.2441H140.594C140.618 16.8156 140.553 16.3868 140.403 15.9846C140.252 15.5824 140.021 15.2154 139.721 14.9068C139.422 14.5982 139.063 14.3546 138.665 14.1912C138.267 14.0279 137.839 13.9483 137.409 13.9575C136.975 13.9549 136.544 14.0381 136.143 14.2022C135.741 14.3663 135.376 14.6081 135.069 14.9137C134.761 15.2193 134.517 15.5825 134.351 15.9825C134.185 16.3825 134.101 16.8113 134.102 17.2441V17.2441Z" fill="black"/>
</svg>
