<svg width="181" height="40" viewBox="0 0 181 40" fill="none" xmlns="http://www.w3.org/2000/svg">
<path d="M90.801 12.8137C89.4859 12.817 88.2013 13.2362 87.1096 14.0182C86.0179 14.8003 85.1681 15.9101 84.6677 17.2073C84.1673 18.5045 84.0388 19.9308 84.2984 21.306C84.5579 22.6811 85.194 23.9432 86.1261 24.9328C87.0581 25.9223 88.2444 26.5949 89.5347 26.8653C90.8251 27.1357 92.1617 26.9919 93.3755 26.4521C94.5893 25.9122 95.6257 25.0006 96.3538 23.8324C97.0818 22.6643 97.4687 21.2921 97.4657 19.8894C97.4784 18.9536 97.3145 18.0247 96.9836 17.1579C96.6528 16.2911 96.1619 15.5042 95.54 14.844C94.9182 14.1838 94.1781 13.6638 93.364 13.315C92.5498 12.9662 91.6782 12.7957 90.801 12.8137ZM90.801 24.1847C89.9949 24.2449 89.1906 24.0449 88.4925 23.611C87.7944 23.177 87.2348 22.5291 86.8865 21.7514C86.5382 20.9737 86.4173 20.1023 86.5395 19.2503C86.6616 18.3983 87.0213 17.6053 87.5716 16.9742C88.1219 16.3432 88.8375 15.9033 89.6253 15.7118C90.4131 15.5203 91.2367 15.5861 91.989 15.9005C92.7414 16.2149 93.3876 16.7634 93.8438 17.4748C94.3 18.1862 94.545 19.0275 94.5469 19.8894C94.5721 20.4355 94.4944 20.9814 94.3186 21.495C94.1428 22.0086 93.8724 22.4794 93.5233 22.8798C93.1741 23.2801 92.7534 23.6018 92.2859 23.8259C91.8183 24.0501 91.3134 24.1721 90.801 24.1847ZM76.2542 12.8137C74.9391 12.817 73.6545 13.2362 72.5628 14.0182C71.4711 14.8003 70.6213 15.9101 70.1209 17.2073C69.6205 18.5045 69.492 19.9308 69.7516 21.306C70.0112 22.6811 70.6472 23.9432 71.5793 24.9328C72.5113 25.9223 73.6976 26.5949 74.988 26.8653C76.2784 27.1357 77.6149 26.9919 78.8287 26.4521C80.0425 25.9122 81.0789 25.0006 81.807 23.8324C82.535 22.6643 82.9219 21.2921 82.9189 19.8894C82.9316 18.9536 82.7677 18.0247 82.4369 17.1579C82.106 16.2911 81.6151 15.5042 80.9932 14.844C80.3714 14.1838 79.6313 13.6638 78.8172 13.315C78.003 12.9662 77.1314 12.7957 76.2542 12.8137ZM76.2542 24.1847C75.4482 24.2449 74.6438 24.0449 73.9457 23.611C73.2476 23.177 72.688 22.5291 72.3397 21.7514C71.9914 20.9737 71.8705 20.1023 71.9927 19.2503C72.1149 18.3983 72.4745 17.6053 73.0248 16.9742C73.5752 16.3432 74.2907 15.9033 75.0785 15.7118C75.8664 15.5203 76.6899 15.5861 77.4423 15.9005C78.1946 16.2149 78.8408 16.7634 79.297 17.4748C79.7532 18.1862 79.9982 19.0275 80.0002 19.8894C80.0253 20.4355 79.9477 20.9814 79.7719 21.495C79.596 22.0086 79.3256 22.4794 78.9765 22.8798C78.6273 23.2801 78.2066 23.6018 77.7391 23.8259C77.2715 24.0501 76.7666 24.1721 76.2542 24.1847ZM58.9604 14.9947V17.9914H65.7031C65.5974 19.4029 65.0473 20.7348 64.1423 21.7707C63.4659 22.5057 62.6524 23.0812 61.7544 23.4597C60.8564 23.8383 59.8939 24.0115 58.9292 23.9683C56.9422 23.9683 55.0366 23.1264 53.6316 21.6277C52.2266 20.129 51.4373 18.0964 51.4373 15.9769C51.4373 13.8575 52.2266 11.8248 53.6316 10.3262C55.0366 8.8275 56.9422 7.98556 58.9292 7.98556C60.8341 7.95534 62.6734 8.72696 64.0486 10.1332L66.0309 8.01886C65.1006 7.03743 63.9961 6.2639 62.782 5.7436C61.5679 5.2233 60.2686 4.96668 58.9604 4.98879C57.5728 4.93119 56.1886 5.17297 54.8907 5.69964C53.5929 6.22632 52.408 7.02704 51.4072 8.05383C50.4064 9.08063 49.6102 10.3124 49.0664 11.6752C48.5225 13.0381 48.2422 14.5041 48.2422 15.9852C48.2422 17.4664 48.5225 18.9324 49.0664 20.2953C49.6102 21.6581 50.4064 22.8899 51.4072 23.9167C52.408 24.9435 53.5929 25.7442 54.8907 26.2709C56.1886 26.7975 57.5728 27.0393 58.9604 26.9817C60.2955 27.0386 61.6269 26.7936 62.8669 26.2627C64.107 25.7319 65.2278 24.9273 66.1557 23.9017C67.7948 21.9811 68.6681 19.4551 68.5906 16.8593C68.5962 16.2345 68.5492 15.6105 68.4501 14.9947H58.9604ZM129.681 17.3255C129.274 16.0481 128.513 14.9327 127.498 14.127C126.484 13.3213 125.263 12.8633 123.999 12.8137C123.146 12.8119 122.301 12.9969 121.517 13.3573C120.733 13.7177 120.026 14.2458 119.441 14.909C118.856 15.5721 118.404 16.3563 118.115 17.2129C117.825 18.0695 117.703 18.9805 117.756 19.8894C117.743 21.4091 118.191 22.8927 119.033 24.1186C119.875 25.3444 121.067 26.2467 122.43 26.6906C123.792 27.1345 125.253 27.0963 126.594 26.5816C127.935 26.067 129.083 25.1035 129.868 23.8351L127.605 22.1702C127.268 22.7701 126.789 23.2654 126.217 23.6071C125.645 23.9487 124.999 24.1249 124.343 24.1181C123.666 24.1479 122.997 23.9587 122.423 23.5754C121.85 23.1921 121.398 22.6326 121.128 21.9705L130.009 18.058L129.681 17.3255ZM120.628 19.6896C120.597 19.1724 120.662 18.6538 120.821 18.1639C120.979 17.6741 121.228 17.2229 121.552 16.8369C121.876 16.4508 122.269 16.1376 122.708 15.9156C123.147 15.6936 123.623 15.5673 124.109 15.5441C124.612 15.5113 125.112 15.6376 125.548 15.9071C125.984 16.1766 126.336 16.5773 126.559 17.0591L120.628 19.6896ZM113.417 26.5488H116.336V5.73799H113.417V26.5488ZM108.641 14.3953H108.532C108.096 13.8656 107.558 13.4427 106.954 13.1553C106.351 12.868 105.696 12.7231 105.036 12.7304C103.33 12.8187 101.721 13.6035 100.544 14.9224C99.3656 16.2412 98.7086 17.9929 98.7086 19.8145C98.7086 21.636 99.3656 23.3877 100.544 24.7065C101.721 26.0254 103.33 26.8102 105.036 26.8985C105.697 26.9126 106.354 26.7707 106.958 26.4829C107.563 26.1951 108.1 25.7685 108.532 25.2336H108.641V26.2492C108.641 28.9629 107.283 30.4113 105.098 30.4113C104.368 30.3942 103.659 30.1461 103.062 29.6985C102.464 29.2509 102.005 28.624 101.742 27.8974L99.2138 29.0128C99.6812 30.2652 100.494 31.3368 101.545 32.0859C102.595 32.835 103.834 33.2264 105.098 33.2083C108.516 33.2083 111.341 31.0606 111.341 25.8329V13.2299H108.641V14.3953ZM105.285 24.1847C104.263 24.1167 103.303 23.6355 102.601 22.839C101.9 22.0425 101.509 20.9906 101.509 19.8977C101.509 18.8048 101.9 17.7529 102.601 16.9564C103.303 16.1599 104.263 15.6787 105.285 15.6107C105.785 15.6337 106.276 15.7637 106.727 15.993C107.179 16.2223 107.583 16.5461 107.915 16.9453C108.247 17.3445 108.5 17.8109 108.66 18.3167C108.82 18.8224 108.882 19.3573 108.844 19.8894C108.887 20.4233 108.827 20.9609 108.669 21.4696C108.512 21.9783 108.259 22.4476 107.926 22.8491C107.594 23.2507 107.188 23.576 106.734 23.8056C106.28 24.0352 105.787 24.1641 105.285 24.1847ZM143.354 5.73799H136.361V26.5488H139.28V18.6574H143.354C144.185 18.7211 145.021 18.6014 145.807 18.3056C146.594 18.0099 147.315 17.5445 147.925 16.9384C148.536 16.3323 149.023 15.5986 149.355 14.7829C149.688 13.9673 149.86 13.0873 149.86 12.1977C149.86 11.3081 149.688 10.428 149.355 9.61241C149.023 8.79678 148.536 8.06305 147.925 7.45697C147.315 6.8509 146.594 6.38548 145.807 6.08973C145.021 5.79398 144.185 5.67424 143.354 5.73799ZM143.354 15.7272H139.28V8.63486H143.416C143.855 8.63486 144.289 8.72701 144.694 8.90606C145.099 9.08511 145.468 9.34754 145.778 9.67838C146.088 10.0092 146.334 10.402 146.502 10.8342C146.67 11.2665 146.756 11.7298 146.756 12.1977C146.756 12.6655 146.67 13.1288 146.502 13.5611C146.334 13.9934 146.088 14.3861 145.778 14.717C145.468 15.0478 145.099 15.3102 144.694 15.4893C144.289 15.6683 143.855 15.7605 143.416 15.7605L143.354 15.7272ZM161.365 12.7471C160.302 12.6772 159.244 12.9411 158.32 13.5063C157.396 14.0715 156.648 14.913 156.168 15.927L158.743 17.0757C159.003 16.5753 159.394 16.1659 159.868 15.8971C160.341 15.6282 160.878 15.5114 161.412 15.5607C161.783 15.5146 162.158 15.5476 162.517 15.6578C162.875 15.7681 163.209 15.9534 163.5 16.2029C163.79 16.4524 164.032 16.7611 164.209 17.1111C164.387 17.461 164.497 17.8452 164.534 18.2411V18.4409C163.595 17.9147 162.551 17.6404 161.49 17.6418C158.712 17.6418 155.871 19.3067 155.871 22.3367C155.899 22.9808 156.047 23.6124 156.308 24.194C156.569 24.7756 156.937 25.2954 157.389 25.7224C157.842 26.1495 158.371 26.4751 158.944 26.68C159.517 26.8849 160.123 26.9649 160.725 26.9151C161.458 26.9583 162.188 26.793 162.841 26.4361C163.493 26.0791 164.045 25.5435 164.44 24.884H164.534V26.5488H167.343V18.5408C167.343 14.8948 164.752 12.7804 161.428 12.7804L161.365 12.7471ZM161.006 24.1514C160.054 24.1514 158.728 23.6353 158.728 22.3867C158.728 20.7218 160.382 20.1557 161.849 20.1557C162.776 20.1313 163.693 20.3728 164.503 20.855C164.405 21.7591 164.003 22.5947 163.371 23.207C162.74 23.8192 161.922 24.1666 161.069 24.1847L161.006 24.1514ZM177.582 13.2299L174.242 22.2535H174.148L170.683 13.2299H167.562L172.759 25.8496L169.794 32.8587H172.837L180.829 13.2299H177.582ZM151.361 26.5488H154.264V5.73799H151.361V26.5488Z" fill="black"/>
<path d="M0.740297 0.629163C0.225961 1.23121 -0.0364769 2.00511 0.00671229 2.79245V36.9724C-0.046396 37.761 0.217258 38.5385 0.740297 39.1357L0.849553 39.2593L20.188 20.1142V19.6506L0.849553 0.520996L0.740297 0.629163Z" fill="url(#paint0_linear_649_5556)"/>
<path d="M26.5829 26.4955L20.1836 20.1138V19.6503L26.5829 13.2686L26.7234 13.3613L34.387 17.6569C36.5721 18.8777 36.5721 20.8864 34.387 22.1226L26.7546 26.4183L26.5829 26.4955Z" fill="url(#paint1_linear_649_5556)"/>
<path d="M26.7687 26.4041L20.1821 19.8833L0.734375 39.1366C1.17542 39.5252 1.73995 39.7488 2.33008 39.7686C2.9202 39.7883 3.4987 39.603 3.96526 39.2447L26.7687 26.4041Z" fill="url(#paint2_linear_649_5556)"/>
<path d="M26.7687 13.3624L3.96526 0.537182C3.50174 0.173926 2.92369 -0.0159119 2.33276 0.00104516C1.74184 0.0180022 1.17587 0.240671 0.734375 0.629896L20.1821 19.8832L26.7687 13.3624Z" fill="url(#paint3_linear_649_5556)"/>
<path opacity="0.2" d="M26.5814 26.2671L3.96526 39.015C3.51566 39.351 2.96772 39.5327 2.40445 39.5327C1.84117 39.5327 1.29323 39.351 0.843631 39.015L0.734375 39.1232L0.843631 39.2468C1.29323 39.5827 1.84117 39.7645 2.40445 39.7645C2.96772 39.7645 3.51566 39.5827 3.96526 39.2468L26.7687 26.4062L26.5814 26.2671Z" fill="black"/>
<path opacity="0.12" d="M0.742589 38.918C0.241246 38.3051 -0.00444624 37.5257 0.0558294 36.7393V36.971C0.00272109 37.7597 0.266372 38.5372 0.789411 39.1343L0.898671 39.0262L0.742589 38.918Z" fill="black"/>
<path opacity="0.12" d="M34.3939 21.8921L26.5898 26.265L26.7303 26.4041L34.3939 22.1084C34.8463 21.919 35.2387 21.6124 35.5299 21.2208C35.821 20.8292 36.0002 20.3672 36.0484 19.8833C35.9508 20.323 35.7502 20.7339 35.4629 21.0828C35.1755 21.4317 34.8093 21.7089 34.3939 21.8921Z" fill="black"/>
<path opacity="0.25" d="M3.97228 0.751975L34.3925 17.8729C34.808 18.056 35.1741 18.3332 35.4615 18.6821C35.7489 19.031 35.9494 19.4419 36.047 19.8816C35.9988 19.3977 35.8197 18.9357 35.5285 18.5441C35.2373 18.1525 34.8449 17.8459 34.3925 17.6565L3.97228 0.535645C1.80275 -0.70052 0.0078125 0.319317 0.0078125 2.79165V3.02343C0.0546369 0.551098 1.80275 -0.468737 3.97228 0.751975Z" fill="white"/>
<defs>
<linearGradient id="paint0_linear_649_5556" x1="18.4711" y1="2.43705" x2="-7.4561" y2="28.6262" gradientUnits="userSpaceOnUse">
<stop stop-color="#00A0FF"/>
<stop offset="0.01" stop-color="#00A1FF"/>
<stop offset="0.26" stop-color="#00BEFF"/>
<stop offset="0.51" stop-color="#00D2FF"/>
<stop offset="0.76" stop-color="#00DFFF"/>
<stop offset="1" stop-color="#00E3FF"/>
</linearGradient>
<linearGradient id="paint1_linear_649_5556" x1="37.2433" y1="19.882" x2="-0.512791" y2="19.882" gradientUnits="userSpaceOnUse">
<stop stop-color="#FFE000"/>
<stop offset="0.41" stop-color="#FFBD00"/>
<stop offset="0.78" stop-color="#FFA500"/>
<stop offset="1" stop-color="#FF9C00"/>
</linearGradient>
<linearGradient id="paint2_linear_649_5556" x1="23.1945" y1="23.4373" x2="-11.9728" y2="58.9442" gradientUnits="userSpaceOnUse">
<stop stop-color="#FF3A44"/>
<stop offset="1" stop-color="#C31162"/>
</linearGradient>
<linearGradient id="paint3_linear_649_5556" x1="-4.16658" y1="-10.7428" x2="11.5319" y2="5.11425" gradientUnits="userSpaceOnUse">
<stop stop-color="#32A071"/>
<stop offset="0.07" stop-color="#2DA771"/>
<stop offset="0.48" stop-color="#15CF74"/>
<stop offset="0.8" stop-color="#06E775"/>
<stop offset="1" stop-color="#00F076"/>
</linearGradient>
</defs>
</svg>
