<svg width="155" height="39" viewBox="0 0 155 39" fill="none" xmlns="http://www.w3.org/2000/svg">
<g clip-path="url(#clip0_649_5569)">
<path fill-rule="evenodd" clip-rule="evenodd" d="M18.6705 38.1797C9.86916 38.1797 5.46846 38.1797 2.73424 35.4959C6.323e-07 32.8121 4.56923e-07 28.4925 6.88878e-08 19.8534L2.9228e-10 18.3262C-3.87744e-07 9.68706 -6.323e-07 5.3675 2.73423 2.68367C5.46846 6.20642e-07 9.86916 4.40865e-07 18.6705 6.6465e-08L20.2264 2.79616e-10C29.0277 -3.74125e-07 33.4284 -6.20642e-07 36.1627 2.68366C38.8969 5.36746 38.8969 9.68706 38.8969 18.3262V19.8534C38.8969 28.4925 38.8969 32.8121 36.1627 35.4959C33.4284 38.1797 29.0277 38.1797 20.2264 38.1797H18.6705Z" fill="#0077FF"/>
<path d="M22.4937 23.5298C21.4458 23.2729 20.7109 22.3527 20.7109 21.2973V8.8638C20.7109 7.66509 21.8649 6.78595 23.0553 7.07781L30.5933 8.92614C31.6413 9.18308 32.3762 10.1033 32.3762 11.1586V23.5921C32.3762 24.7909 31.2222 25.67 30.0318 25.3782L22.4937 23.5298Z" fill="white"/>
<path d="M8.30624 29.2545C7.25824 28.9975 6.52344 28.0773 6.52344 27.0219V14.5884C6.52344 13.3897 7.67739 12.5106 8.86773 12.8024L16.4058 14.6508C17.4538 14.9077 18.1886 15.8279 18.1886 16.8832V29.3168C18.1886 30.5155 17.0346 31.3946 15.8443 31.1027L8.30624 29.2545Z" fill="white"/>
<path d="M15.3961 26.3912C14.3481 26.1342 13.6133 25.214 13.6133 24.1587V11.7252C13.6133 10.5265 14.7673 9.64728 15.9576 9.93914L23.4957 11.7875C24.5437 12.0444 25.2785 12.9646 25.2785 14.02V26.4535C25.2785 27.6522 24.1245 28.5314 22.9341 28.2395L15.3961 26.3912Z" fill="white"/>
<path d="M20.3327 27.6052C20.0026 27.5227 19.7677 27.2361 19.7561 26.902L19.4282 17.4065C19.3334 16.1498 18.3829 15.1503 17.3898 14.856C17.334 14.8395 17.2745 14.8617 17.2415 14.9088C17.2079 14.9567 17.2209 15.0229 17.2677 15.0585C17.5129 15.2448 18.1879 15.853 18.1879 16.9019L18.1859 27.0712L20.3327 27.6052Z" fill="#2B71F6"/>
<path d="M27.4304 24.7402C27.1006 24.6592 26.8653 24.3735 26.8539 24.04L26.5258 14.5452C26.431 13.2885 25.4806 12.289 24.4874 11.9947C24.4317 11.9782 24.3721 12.0004 24.3391 12.0475C24.3055 12.0953 24.3185 12.1616 24.3653 12.1972C24.6106 12.3835 25.2856 12.9917 25.2856 14.0406L25.2836 24.2133L27.4304 24.7402Z" fill="#2B71F6"/>
<path d="M61.2891 21.9762C64.2347 21.2391 66.1703 19.0278 66.1703 16.1339C66.1703 12.5575 63.2526 10.0459 59.1569 10.0459H51.8633V29.2928H55.2296V22.2219H57.6143L62.8318 29.2928H66.7873L61.2891 21.9762ZM59.1569 13.049C61.2609 13.049 62.7199 14.3048 62.7199 16.1339C62.7199 17.963 61.2609 19.2189 59.1569 19.2189H55.2296V13.049H59.1569Z" fill="black"/>
<path d="M74.3648 29.5679C76.132 29.5679 77.759 28.667 78.6851 27.1655L79.3299 29.2949H81.7429V15.0986H78.5167V23.3161C78.5167 25.3364 77.142 26.756 75.2626 26.756C73.411 26.756 72.1203 25.3364 72.1203 23.3161V15.0986H68.8945V23.671C68.8945 27.0836 71.2509 29.5679 74.3648 29.5679Z" fill="black"/>
<path d="M92.0406 29.5673C95.7716 29.5673 98.8577 27.4924 98.8577 24.0526C98.8577 20.2032 95.6315 19.0839 92.8543 18.1557C90.6942 17.4459 88.8148 16.7907 88.8148 15.0707C88.8148 13.5692 90.2451 12.7775 91.9283 12.7775C93.6959 12.7775 94.9583 13.6784 95.6597 15.2072L98.8577 14.6885C97.8477 11.6854 95.2946 9.77441 91.8165 9.77441C88.2256 9.77441 85.364 11.7946 85.364 15.2345C85.364 19.1112 88.5902 20.1759 91.3674 21.0768C93.4996 21.7594 95.4069 22.4145 95.4069 24.1618C95.4069 25.6906 93.9766 26.5642 92.0689 26.5642C89.8805 26.5642 88.7025 25.5541 87.6647 23.725L84.4102 24.271C85.364 27.5198 88.394 29.5673 92.0406 29.5673Z" fill="black"/>
<path d="M107.632 26.5623C106.538 26.5623 106.005 26.0436 106.005 24.9789V17.8261H110.353V15.0961H106.005V11.001H103.592L102.779 15.0961H100.395V17.8261H102.779V24.9789C102.779 27.7635 104.434 29.2924 107.632 29.2924H110.353L110.634 26.5623H107.632Z" fill="black"/>
<path d="M119.846 29.5684C124.418 29.5684 127.644 26.5108 127.644 22.1973C127.644 17.8838 124.418 14.8262 119.846 14.8262C115.273 14.8262 112.047 17.8838 112.047 22.1973C112.047 26.5108 115.273 29.5684 119.846 29.5684ZM119.846 26.7019C117.209 26.7019 115.413 24.8728 115.413 22.1973C115.413 19.5218 117.209 17.6927 119.846 17.6927C122.483 17.6927 124.278 19.5218 124.278 22.1973C124.278 24.8728 122.483 26.7019 119.846 26.7019Z" fill="black"/>
<path d="M133.687 29.2949V20.9137C133.687 19.1118 134.584 18.1017 136.548 18.1017H138.4L138.119 15.0986H137.502C135.791 15.0986 134.472 15.5627 133.49 17.1462L132.873 15.0986H130.461V29.2949H133.687Z" fill="black"/>
<path d="M154.27 22.0335C154.27 17.9384 151.128 14.8262 146.695 14.8262C142.263 14.8262 139.121 17.9111 139.121 22.1973C139.121 26.4835 142.263 29.5684 146.695 29.5684C149.725 29.5684 152.586 28.1761 153.681 25.4734L150.651 24.982C149.95 25.9921 148.603 26.7019 146.892 26.7019C144.423 26.7019 142.796 25.2277 142.487 23.0436H154.214C154.242 22.7433 154.27 22.4157 154.27 22.0335ZM146.695 17.5562C148.715 17.5562 150.23 18.812 150.763 20.5866H142.684C143.217 18.7574 144.732 17.5562 146.695 17.5562Z" fill="black"/>
</g>
<defs>
<clipPath id="clip0_649_5569">
<rect width="154.262" height="38.1797" fill="white"/>
</clipPath>
</defs>
</svg>
