<svg width="20" height="20" viewBox="0 0 20 20" fill="none" xmlns="http://www.w3.org/2000/svg">
<path d="M2.63823 2.25006C2.43363 2.48954 2.32924 2.79739 2.34642 3.11058V16.7069C2.32529 17.0206 2.43017 17.3299 2.63823 17.5674L2.68169 17.6166L10.3743 10.0009V9.81653L2.68169 2.20703L2.63823 2.25006Z" fill="url(#paint0_linear_649_5524)"/>
<path d="M12.9167 12.5398L10.3711 10.0013V9.81687L12.9167 7.27832L12.9725 7.3152L16.021 9.02396C16.8902 9.50954 16.8902 10.3086 16.021 10.8003L12.985 12.5091L12.9167 12.5398Z" fill="url(#paint1_linear_649_5524)"/>
<path d="M12.9889 12.503L10.3688 9.90918L2.63281 17.5679C2.80825 17.7225 3.03282 17.8114 3.26756 17.8193C3.5023 17.8271 3.73242 17.7534 3.91801 17.6109L12.9889 12.503Z" fill="url(#paint2_linear_649_5524)"/>
<path d="M12.9889 7.31537L3.91801 2.21368C3.73363 2.06919 3.50369 1.99367 3.26863 2.00042C3.03357 2.00716 2.80843 2.09574 2.63281 2.25056L10.3688 9.90923L12.9889 7.31537Z" fill="url(#paint3_linear_649_5524)"/>
<path opacity="0.2" d="M12.9144 12.4473L3.91801 17.5182C3.73917 17.6518 3.52121 17.7241 3.29714 17.7241C3.07308 17.7241 2.85512 17.6518 2.67627 17.5182L2.63281 17.5612L2.67627 17.6104C2.85512 17.744 3.07308 17.8163 3.29714 17.8163C3.52121 17.8163 3.73917 17.744 3.91801 17.6104L12.9889 12.5026L12.9144 12.4473Z" fill="black"/>
<path opacity="0.12" d="M2.64003 17.4819C2.4406 17.2381 2.34287 16.9281 2.36684 16.6152V16.7074C2.34572 17.0211 2.45059 17.3304 2.65865 17.568L2.70211 17.5249L2.64003 17.4819Z" fill="black"/>
<path opacity="0.12" d="M16.0223 10.7082L12.918 12.4477L12.9738 12.503L16.0223 10.7943C16.2023 10.719 16.3584 10.597 16.4742 10.4412C16.59 10.2855 16.6613 10.1017 16.6804 9.90918C16.6416 10.0841 16.5618 10.2475 16.4475 10.3863C16.3332 10.5251 16.1876 10.6354 16.0223 10.7082Z" fill="black"/>
<path opacity="0.25" d="M3.92076 2.29915L16.0215 9.10959C16.1867 9.18244 16.3324 9.29271 16.4467 9.4315C16.561 9.57029 16.6408 9.73373 16.6796 9.90865C16.6604 9.71616 16.5892 9.53236 16.4734 9.37659C16.3575 9.22083 16.2014 9.09886 16.0215 9.02353L3.92076 2.21309C3.05775 1.72136 2.34375 2.12704 2.34375 3.1105V3.2027C2.36238 2.21924 3.05775 1.81356 3.92076 2.29915Z" fill="#F8F8F8"/>
<defs>
<linearGradient id="paint0_linear_649_5524" x1="9.69131" y1="2.96921" x2="-0.62218" y2="13.3869" gradientUnits="userSpaceOnUse">
<stop stop-color="#00A0FF"/>
<stop offset="0.01" stop-color="#00A1FF"/>
<stop offset="0.26" stop-color="#00BEFF"/>
<stop offset="0.51" stop-color="#00D2FF"/>
<stop offset="0.76" stop-color="#00DFFF"/>
<stop offset="1" stop-color="#00E3FF"/>
</linearGradient>
<linearGradient id="paint1_linear_649_5524" x1="17.1572" y1="9.90907" x2="2.13837" y2="9.90907" gradientUnits="userSpaceOnUse">
<stop stop-color="#FFE000"/>
<stop offset="0.41" stop-color="#FFBD00"/>
<stop offset="0.78" stop-color="#FFA500"/>
<stop offset="1" stop-color="#FF9C00"/>
</linearGradient>
<linearGradient id="paint2_linear_649_5524" x1="11.5671" y1="11.3229" x2="-2.42191" y2="25.447" gradientUnits="userSpaceOnUse">
<stop stop-color="#FF3A44"/>
<stop offset="1" stop-color="#C31162"/>
</linearGradient>
<linearGradient id="paint3_linear_649_5524" x1="0.683283" y1="-2.27334" x2="6.92792" y2="4.03437" gradientUnits="userSpaceOnUse">
<stop stop-color="#32A071"/>
<stop offset="0.07" stop-color="#2DA771"/>
<stop offset="0.48" stop-color="#15CF74"/>
<stop offset="0.8" stop-color="#06E775"/>
<stop offset="1" stop-color="#00F076"/>
</linearGradient>
</defs>
</svg>
