<svg width="42" height="27" viewBox="0 0 42 27" fill="none" xmlns="http://www.w3.org/2000/svg">
<path d="M13.7233 26.91L8.12667 16.7517H6.555V26.91H0V0H11.0017C13.1228 0 14.9244 0.370555 16.4067 1.11167C17.9144 1.85278 19.0389 2.875 19.78 4.17833C20.5211 5.45611 20.8917 6.88722 20.8917 8.47167C20.8917 10.2606 20.3806 11.8578 19.3583 13.2633C18.3617 14.6689 16.8794 15.6656 14.9117 16.2533L21.1217 26.91H13.7233ZM6.555 12.1133H10.6183C11.8194 12.1133 12.7139 11.8194 13.3017 11.2317C13.915 10.6439 14.2217 9.81333 14.2217 8.74C14.2217 7.71778 13.915 6.91278 13.3017 6.325C12.7139 5.73722 11.8194 5.44333 10.6183 5.44333H6.555V12.1133Z" fill="#4DC0B3"/>
<path d="M41.7582 0V5.25167H30.7948V10.925H38.9982V16.0233H30.7948V26.91H24.2398V0H41.7582Z" fill="#4DC0B3"/>
</svg>
